<svg width="411" height="46" viewBox="0 0 411 46" fill="none" xmlns="http://www.w3.org/2000/svg">
<g style="mix-blend-mode:difference">
<path d="M27.6322 45.858C15.0922 45.858 0.440173 39.192 0.440173 23.022C0.440173 7.578 14.3002 0.185999 27.6322 0.185999C36.0142 0.185999 44.5282 3.09 49.0822 8.964L45.2542 14.112C41.8882 8.7 34.9582 6.06 27.4342 6.06C15.0262 6.06 6.57817 12.858 6.57817 23.022C6.57817 33.252 14.8942 39.984 27.6322 39.984C34.9582 39.984 41.4922 37.542 45.2542 33.252L49.7422 37.344C44.3962 43.284 35.4862 45.858 27.6322 45.858ZM79.1405 45.858C66.6005 45.858 52.2785 39.192 52.2785 23.022C52.2785 7.578 66.1385 0.185999 79.1405 0.185999C92.1425 0.185999 106.003 7.578 106.003 23.022C106.003 39.192 91.6805 45.858 79.1405 45.858ZM79.1405 39.984C88.7765 39.984 99.8645 35.1 99.8645 23.022C99.8645 11.472 89.1725 6.06 79.1405 6.06C69.1085 6.06 58.4165 11.472 58.4165 23.022C58.4165 35.1 69.5045 39.984 79.1405 39.984ZM158.696 1.176H164.636V45H157.442L118.37 8.04V45H112.43V1.176H119.69L158.696 38.07V1.176ZM217.105 1.176V7.05H196.183V45H190.243V7.05H169.387V1.176H217.105ZM252.879 45L247.731 35.43H216.843L211.695 45H205.029L228.525 1.176H236.049L259.545 45H252.879ZM219.945 29.622H244.629L232.287 6.588L219.945 29.622ZM285.599 45.858C273.059 45.858 258.407 39.192 258.407 23.022C258.407 7.578 272.267 0.185999 285.599 0.185999C293.981 0.185999 302.495 3.09 307.049 8.964L303.221 14.112C299.855 8.7 292.925 6.06 285.401 6.06C272.993 6.06 264.545 12.858 264.545 23.022C264.545 33.252 272.861 39.984 285.599 39.984C292.925 39.984 299.459 37.542 303.221 33.252L307.709 37.344C302.363 43.284 293.453 45.858 285.599 45.858ZM356.572 1.176V7.05H335.65V45H329.71V7.05H308.854V1.176H356.572ZM383.274 45.858C370.734 45.858 356.412 39.192 356.412 23.022C356.412 7.578 370.272 0.185999 383.274 0.185999C396.276 0.185999 410.136 7.578 410.136 23.022C410.136 39.192 395.814 45.858 383.274 45.858ZM383.274 39.984C392.91 39.984 403.998 35.1 403.998 23.022C403.998 11.472 393.306 6.06 383.274 6.06C373.242 6.06 362.55 11.472 362.55 23.022C362.55 35.1 373.638 39.984 383.274 39.984Z" fill="#928E73"/>
</g>
</svg>
