<svg width="1348" height="251" viewBox="0 0 1348 251" fill="none" xmlns="http://www.w3.org/2000/svg">
<path d="M1347.45 227.664L1328.65 250.823L1278.31 211.554C1254.81 225.427 1227.4 232.363 1196.08 232.363C1179.52 232.363 1163.41 230.126 1147.74 225.651C1132.08 220.952 1117.54 214.239 1104.11 205.512C1090.69 196.562 1079.83 184.367 1071.56 168.928C1063.5 153.489 1059.47 135.924 1059.47 116.233C1059.47 97.4375 1063.39 80.432 1071.22 65.2165C1079.28 50.0009 1089.9 37.8062 1103.11 28.6321C1116.31 19.2343 1130.85 12.1859 1146.74 7.48703C1162.62 2.56436 1179.07 0.103027 1196.08 0.103027C1213.08 0.103027 1229.53 2.56436 1245.42 7.48703C1261.3 12.1859 1275.85 19.2343 1289.05 28.6321C1302.25 37.8062 1312.77 50.0009 1320.6 65.2165C1328.65 80.432 1332.68 97.4375 1332.68 116.233C1332.68 147.335 1322.72 172.844 1302.81 192.758L1347.45 227.664ZM1196.08 202.492C1215.99 202.492 1234.56 198.688 1251.79 191.08L1186.68 140.399L1205.47 117.24L1277.97 173.627C1293.63 158.411 1301.47 139.28 1301.47 116.233C1301.47 97.6613 1296.1 81.6626 1285.36 68.2372C1274.62 54.588 1261.53 44.8545 1246.09 39.0368C1230.65 32.9954 1213.98 29.9746 1196.08 29.9746C1178.18 29.9746 1161.51 32.9954 1146.07 39.0368C1130.63 44.8545 1117.54 54.588 1106.8 68.2372C1096.06 81.6626 1090.69 97.6613 1090.69 116.233C1090.69 131.001 1093.82 144.091 1100.08 155.503C1106.35 166.914 1114.63 175.976 1124.92 182.689C1135.44 189.178 1146.74 194.101 1158.82 197.457C1170.9 200.813 1183.32 202.492 1196.08 202.492Z" fill="black"/>
<path d="M1042.05 228H1002.11L925.246 143.755H919.876H829.254V228H799.047V5.13753C827.688 3.57123 867.964 2.78809 919.876 2.78809C999.31 2.78809 1039.03 26.6183 1039.03 74.2786C1039.03 111.646 1013.63 133.91 962.837 141.07L1042.05 228ZM829.254 34.0023V114.219H919.876C951.873 114.219 974.473 110.975 987.674 104.486C1001.1 97.7731 1007.81 87.704 1007.81 74.2786C1007.81 60.4056 1000.99 50.0009 987.339 43.0644C973.69 36.1279 951.202 32.6597 919.876 32.6597C886.312 32.6597 856.105 33.1072 829.254 34.0023Z" fill="black"/>
<path d="M741.692 228L715.512 179.333H558.434L532.255 228H498.355L617.842 5.1377H656.104L775.591 228H741.692ZM574.209 149.797H699.737L636.973 32.6599L574.209 149.797Z" fill="black"/>
<path d="M301.797 198.129H480.356V228H271.59V5.1377H301.797V198.129Z" fill="black"/>
<path d="M204.262 228L106.928 123.617L30.4026 191.416V228H0.195312V5.1377H30.4026V151.475L196.543 5.1377H241.182L129.08 103.479L244.538 228H204.262Z" fill="black"/>
</svg>
