<svg width="167" height="31" viewBox="0 0 167 31" fill="none" xmlns="http://www.w3.org/2000/svg">
<path d="M166.182 28.0697L163.863 30.9263L157.653 26.0824C154.631 27.8627 150.946 28.6493 147.51 28.6493C139.644 28.6493 130.66 24.4678 130.66 14.3246C130.66 4.63688 139.354 0 147.51 0C155.666 0 164.36 4.63688 164.36 14.3246C164.36 18.3819 162.911 21.5284 160.676 23.764L166.182 28.0697ZM147.51 24.9646C149.829 24.9646 152.23 24.5092 154.383 23.557L146.351 17.3055L148.669 14.4488L157.612 21.4042C159.351 19.7067 160.51 17.3883 160.51 14.3246C160.51 7.07952 153.803 3.68466 147.51 3.68466C141.217 3.68466 134.51 7.07952 134.51 14.3246C134.51 21.901 141.466 24.9646 147.51 24.9646Z" fill="black"/>
<path d="M128.513 28.111H123.586L114.106 17.7195H113.443C108.558 17.7195 104.791 17.7195 102.265 17.7195V28.111H98.5391V0.62098C98.5391 0.62098 103.838 0.331177 113.443 0.331177C122.841 0.331177 128.141 3.06362 128.141 9.14952C128.141 13.952 124.828 16.5188 118.743 17.3883L128.513 28.111ZM102.265 4.18144V14.0762H113.443C121.641 14.0762 124.29 12.3374 124.29 9.14952C124.29 5.83747 121.434 4.01584 113.443 4.01584C108.517 4.01584 104.749 4.09864 102.265 4.18144Z" fill="black"/>
<path d="M91.4647 28.111L88.2355 22.1079H68.8599L65.6307 28.111H61.4492L76.1879 0.620972H80.9075L95.6462 28.111H91.4647ZM70.8058 18.4647H86.2896L78.5477 4.01583L70.8058 18.4647Z" fill="black"/>
<path d="M37.2026 24.4264H59.2278V28.111H33.4766V0.620972H37.2026V24.4264Z" fill="black"/>
<path d="M25.1716 28.111L13.1654 15.2354L3.72606 23.5984V28.111H0V0.620972H3.72606V18.6717L24.2194 0.620972H29.7257L15.8979 12.7514L30.1397 28.111H25.1716Z" fill="black"/>
</svg>
