<svg width="291" height="55" viewBox="0 0 291 55" fill="none" xmlns="http://www.w3.org/2000/svg">
<g style="mix-blend-mode:difference">
<path d="M46.3126 49.5444L27.1726 29.0184L12.1246 42.3504V49.5444H6.18463V5.72043H12.1246V34.4964L44.7946 5.72043H53.5726L31.5286 25.0584L54.2326 49.5444H46.3126ZM65.4918 43.6704H100.604V49.5444H59.5518V5.72043H65.4918V43.6704ZM151.994 49.5444L146.846 39.9744H115.958L110.81 49.5444H104.144L127.64 5.72043H135.164L158.66 49.5444H151.994ZM119.06 34.1664H143.744L131.402 11.1324L119.06 34.1664ZM211.056 49.5444H203.202L188.088 32.9784H187.032H169.212V49.5444H163.272V5.72043C168.904 5.41243 176.824 5.25843 187.032 5.25843C202.652 5.25843 210.462 9.94443 210.462 19.3164C210.462 26.6644 205.468 31.0424 195.48 32.4504L211.056 49.5444ZM169.212 11.3964V27.1704H187.032C193.324 27.1704 197.768 26.5324 200.364 25.2564C203.004 23.9364 204.324 21.9564 204.324 19.3164C204.324 16.5884 202.982 14.5424 200.298 13.1784C197.614 11.8144 193.192 11.1324 187.032 11.1324C180.432 11.1324 174.492 11.2204 169.212 11.3964ZM271.111 49.4784L267.415 54.0324L257.515 46.3104C252.895 49.0384 247.505 50.4024 241.345 50.4024C238.089 50.4024 234.921 49.9624 231.841 49.0824C228.761 48.1584 225.901 46.8384 223.261 45.1224C220.621 43.3624 218.487 40.9644 216.859 37.9284C215.275 34.8924 214.483 31.4384 214.483 27.5664C214.483 23.8704 215.253 20.5264 216.793 17.5344C218.377 14.5424 220.467 12.1444 223.063 10.3404C225.659 8.49243 228.519 7.10643 231.643 6.18243C234.767 5.21443 238.001 4.73043 241.345 4.73043C244.689 4.73043 247.923 5.21443 251.047 6.18243C254.171 7.10643 257.031 8.49243 259.627 10.3404C262.223 12.1444 264.291 14.5424 265.831 17.5344C267.415 20.5264 268.207 23.8704 268.207 27.5664C268.207 33.6824 266.249 38.6984 262.333 42.6144L271.111 49.4784ZM241.345 44.5284C245.261 44.5284 248.913 43.7804 252.301 42.2844L239.497 32.3184L243.193 27.7644L257.449 38.8524C260.529 35.8604 262.069 32.0984 262.069 27.5664C262.069 23.9144 261.013 20.7684 258.901 18.1284C256.789 15.4444 254.215 13.5304 251.179 12.3864C248.143 11.1984 244.865 10.6044 241.345 10.6044C237.825 10.6044 234.547 11.1984 231.511 12.3864C228.475 13.5304 225.901 15.4444 223.789 18.1284C221.677 20.7684 220.621 23.9144 220.621 27.5664C220.621 30.4704 221.237 33.0444 222.469 35.2884C223.701 37.5324 225.329 39.3144 227.353 40.6344C229.421 41.9104 231.643 42.8784 234.019 43.5384C236.395 44.1984 238.837 44.5284 241.345 44.5284Z" fill="white"/>
</g>
</svg>
